<svg xmlns="http://www.w3.org/2000/svg" width="900" height="560" viewBox="0 0 900 560"><defs><linearGradient id="bg" x1="0" x2="1"><stop stop-color="#f8efe3"/><stop offset="1" stop-color="#d7b489"/></linearGradient><filter id="sh"><feDropShadow dx="0" dy="12" stdDeviation="16" flood-opacity=".24"/></filter></defs><rect width="900" height="560" rx="30" fill="url(#bg)"/><ellipse cx="450" cy="300" rx="300" ry="145" fill="#2d2a26" filter="url(#sh)"/><ellipse cx="450" cy="280" rx="270" ry="120" fill="#efe9dc"/><g fill="#d95b48" stroke="#fff2ea" stroke-width="5"><ellipse cx="300" cy="275" rx="90" ry="42" transform="rotate(-18 300 275)"/><ellipse cx="395" cy="250" rx="105" ry="46" transform="rotate(-8 395 250)"/><ellipse cx="500" cy="258" rx="105" ry="45" transform="rotate(7 500 258)"/><ellipse cx="600" cy="285" rx="92" ry="43" transform="rotate(16 600 285)"/><ellipse cx="420" cy="330" rx="100" ry="42" transform="rotate(6 420 330)"/><ellipse cx="530" cy="330" rx="96" ry="40" transform="rotate(-9 530 330)"/></g><path d="M450 205 C466 240 498 252 536 242 C514 276 478 287 450 268 C421 287 386 276 364 242 C403 252 434 240 450 205Z" fill="#54824c"/></svg>
