<svg xmlns="http://www.w3.org/2000/svg" viewBox="0 0 900 620"><defs><linearGradient id="bg" x1="0" x2="1"><stop stop-color="#f7efe5"/><stop offset="1" stop-color="#efe2d2"/></linearGradient><filter id="sh"><feDropShadow dx="0" dy="14" stdDeviation="18" flood-opacity=".16"/></filter></defs><rect width="900" height="620" fill="url(#bg)"/><ellipse cx="455" cy="360" rx="310" ry="145" fill="#252018" filter="url(#sh)"/><ellipse cx="455" cy="342" rx="270" ry="115" fill="#f5f0dc"/><g fill="#c85b4d" stroke="#f7c7b7" stroke-width="9" opacity=".95"><ellipse cx="330" cy="335" rx="92" ry="42" transform="rotate(-17 330 335)"/><ellipse cx="455" cy="320" rx="110" ry="46" transform="rotate(-5 455 320)"/><ellipse cx="575" cy="350" rx="92" ry="42" transform="rotate(12 575 350)"/><ellipse cx="405" cy="405" rx="102" ry="38" transform="rotate(5 405 405)"/></g><g fill="#68814c"><path d="M494 225c40-70 112-88 154-72-40 46-86 75-154 72z"/><path d="M438 225c-39-58-93-69-145-52 39 43 82 58 145 52z"/></g></svg>
