<svg xmlns="http://www.w3.org/2000/svg" width="900" height="560" viewBox="0 0 900 560"><defs><linearGradient id="bg" x1="0" x2="1"><stop stop-color="#f6f1e7"/><stop offset="1" stop-color="#ded4c5"/></linearGradient><filter id="sh"><feDropShadow dx="0" dy="10" stdDeviation="14" flood-opacity=".22"/></filter></defs><rect width="900" height="560" rx="30" fill="url(#bg)"/><g transform="translate(150 80)" filter="url(#sh)"><rect x="50" y="50" width="240" height="330" rx="16" fill="#fff"/><rect x="78" y="85" width="184" height="56" rx="8" fill="#2f302b"/><rect x="82" y="165" width="175" height="170" fill="#f1efe8"/><path d="M370 180 h90 a40 40 0 0 1 40 40 v130 a45 45 0 0 1-45 45 h-80 a45 45 0 0 1-45-45 V220 a40 40 0 0 1 40-40Z" fill="#2e312c"/><path d="M390 205 h52 a26 26 0 0 1 26 26 v105 a26 26 0 0 1-26 26 h-52 a26 26 0 0 1-26-26 V231 a26 26 0 0 1 26-26Z" fill="#fff"/><rect x="530" y="120" width="62" height="265" rx="31" fill="#f8f8f5"/><rect x="546" y="80" width="30" height="58" rx="8" fill="#2f302b"/></g></svg>
