<svg xmlns="http://www.w3.org/2000/svg" width="1200" height="760" viewBox="0 0 1200 760"><defs><linearGradient id="s" y1="0" y2="1"><stop stop-color="#91c9ff"/><stop offset="1" stop-color="#eaf5ff"/></linearGradient><filter id="ds"><feDropShadow dx="0" dy="10" stdDeviation="12" flood-opacity=".25"/></filter></defs><rect width="1200" height="760" fill="url(#s)"/><rect y="520" width="1200" height="240" fill="#d5d0c2"/><g fill="#fff" opacity=".8"><ellipse cx="250" cy="95" rx="135" ry="30"/><ellipse cx="760" cy="120" rx="170" ry="36"/></g><g transform="translate(190 170)" filter="url(#ds)"><path d="M70 185 L360 55 L840 185 L840 470 L70 470Z" fill="#f3f3eb"/><path d="M360 55 L895 180 L850 210 L360 100 L70 210 L20 185Z" fill="#424242"/><rect x="120" y="250" width="250" height="220" fill="#68706d"/><rect x="170" y="300" width="60" height="75" fill="#f7faf9"/><rect x="500" y="275" width="115" height="130" fill="#b9cfd4"/><rect x="650" y="245" width="145" height="225" fill="#e5e1d5"/><rect x="120" y="470" width="520" height="55" fill="#565656"/><rect x="420" y="350" width="92" height="120" fill="#a36b3d"/></g><g fill="#586d3d"><circle cx="120" cy="570" r="55"/><circle cx="1030" cy="575" r="64"/><circle cx="1100" cy="635" r="44"/></g></svg>
